<?xml version="1.0" encoding="UTF-8" standalone="no"?>
<!-- Created with Bouml (http://bouml.free.fr/) -->
<!DOCTYPE svg PUBLIC "-//W3C//DTD SVG 1.1//EN" "http://www.w3.org/Graphics/SVG/1.1/DTD/svg11.dtd">
<svg width="778" height="570" version="1.1" xmlns="http://www.w3.org/2000/svg">
<g>
	<line stroke="black" stroke-opacity="1" x1="315" y1="187" x2="309" y2="181" />
	<line stroke="black" stroke-opacity="1" x1="315" y1="187" x2="309" y2="193" />
	<line stroke="black" stroke-opacity="1" x1="189" y1="187" x2="315" y2="187" />
	<polygon fill="#000000" stroke="black" stroke-opacity="1" points="189,187 195,181 201,187 195,193" />
</g>
<g>
	<line stroke="black" stroke-opacity="1" x1="699" y1="303" x2="693" y2="297" />
	<line stroke="black" stroke-opacity="1" x1="699" y1="303" x2="693" y2="309" />
	<line stroke-dasharray="4,4" stroke="black" stroke-opacity="1" x1="658" y1="303" x2="699" y2="303" />
</g>
<g>
	<line stroke="black" stroke-opacity="1" x1="108" y1="426" x2="114" y2="420" />
	<line stroke="black" stroke-opacity="1" x1="108" y1="426" x2="102" y2="420" />
	<line stroke="black" stroke-opacity="1" x1="108" y1="358" x2="108" y2="426" />
	<polygon fill="#000000" stroke="black" stroke-opacity="1" points="108,358 114,364 108,370 102,364" />
</g>
<g>
	<line stroke="black" stroke-opacity="1" x1="336" y1="386" x2="335" y2="377" />
	<line stroke="black" stroke-opacity="1" x1="336" y1="386" x2="327" y2="386" />
	<line stroke="black" stroke-opacity="1" x1="189" y1="258" x2="336" y2="386" />
	<polygon fill="#000000" stroke="black" stroke-opacity="1" points="189,258 197,257 198,265 189,266" />
</g>
<g>
	<rect fill="#808080" stroke="none" stroke-opacity="1" x="761" y="287" width="4" height="38" />
	<rect fill="#808080" stroke="none" stroke-opacity="1" x="705" y="321" width="60" height="4" />
	<rect fill="#ffffc0" stroke="black" stroke-width="1" stroke-opacity="1" x="700" y="282" width="61" height="39" />
	<text font-family="Helvetica" font-size="13" fill="#000000" xml:space="preserve" font-weight="bold" text-anchor="middle" x="731" y="297">XorpFd</text>
	<line stroke="black" stroke-opacity="1" x1="700" y1="302" x2="761" y2="302" />
	<line stroke="black" stroke-opacity="1" x1="700" y1="311" x2="761" y2="311" />
</g>
<g>
	<rect fill="#808080" stroke="none" stroke-opacity="1" x="184" y="21" width="4" height="336" />
	<rect fill="#808080" stroke="none" stroke-opacity="1" x="32" y="353" width="156" height="4" />
	<rect fill="#ffffc0" stroke="black" stroke-width="1" stroke-opacity="1" x="27" y="16" width="157" height="337" />
	<text font-family="Helvetica" font-size="13" fill="#000000" xml:space="preserve" font-weight="bold" text-anchor="middle" x="106" y="31">EventLoop</text>
	<line stroke="black" stroke-opacity="1" x1="27" y1="36" x2="184" y2="36" />
	<line stroke="black" stroke-opacity="1" x1="27" y1="45" x2="184" y2="45" />
	<text font-family="Helvetica" font-size="13" fill="#000000" xml:space="preserve" x="32" y="60">EventLoop()</text>
	<text font-family="Helvetica" font-size="13" fill="#000000" xml:space="preserve" x="32" y="78">~EventLoop()</text>
	<text font-family="Helvetica" font-size="13" fill="#000000" xml:space="preserve" x="32" y="96">run()</text>
	<text font-family="Helvetica" font-size="13" fill="#000000" xml:space="preserve" x="32" y="114">selector_list()</text>
	<text font-family="Helvetica" font-size="13" fill="#000000" xml:space="preserve" x="32" y="132">new_oneoff_at()</text>
	<text font-family="Helvetica" font-size="13" fill="#000000" xml:space="preserve" x="32" y="150">new_oneoff_after()</text>
	<text font-family="Helvetica" font-size="13" fill="#000000" xml:space="preserve" x="32" y="168">new_oneoff_after_ms()</text>
	<text font-family="Helvetica" font-size="13" fill="#000000" xml:space="preserve" x="32" y="186">new_periodic()</text>
	<text font-family="Helvetica" font-size="13" fill="#000000" xml:space="preserve" x="32" y="204">new_periodic_ms()</text>
	<text font-family="Helvetica" font-size="13" fill="#000000" xml:space="preserve" x="32" y="222">new_timer()</text>
	<text font-family="Helvetica" font-size="13" fill="#000000" xml:space="preserve" x="32" y="240">new_oneoff_task()</text>
	<text font-family="Helvetica" font-size="13" fill="#000000" xml:space="preserve" x="32" y="258">new_task()</text>
	<text font-family="Helvetica" font-size="13" fill="#000000" xml:space="preserve" x="32" y="276">add_ioevent_cb()</text>
	<text font-family="Helvetica" font-size="13" fill="#000000" xml:space="preserve" x="32" y="294">remove_ioevent_cb()</text>
	<text font-family="Helvetica" font-size="13" fill="#000000" xml:space="preserve" x="32" y="312">events_pending()</text>
	<text font-family="Helvetica" font-size="13" fill="#000000" xml:space="preserve" x="32" y="330">current_time()</text>
	<text font-family="Helvetica" font-size="13" fill="#000000" xml:space="preserve" x="32" y="348">descriptor_count()</text>
</g>
<g>
	<line stroke="black" stroke-opacity="1" x1="563" y1="335" x2="554" y2="333" />
	<line stroke="black" stroke-opacity="1" x1="563" y1="335" x2="561" y2="343" />
	<line stroke="black" stroke-opacity="1" x1="485" y1="394" x2="563" y2="335" />
	<polygon fill="#ffffff" stroke="black" stroke-opacity="1" points="485,394 486,385 494,386 493,395" />
</g>
<g>
	<line stroke="black" stroke-opacity="1" x1="563" y1="276" x2="560" y2="267" />
	<line stroke="black" stroke-opacity="1" x1="563" y1="276" x2="554" y2="278" />
	<line stroke="black" stroke-opacity="1" x1="490" y1="235" x2="563" y2="276" />
	<polygon fill="#ffffff" stroke="black" stroke-opacity="1" points="490,235 498,232 500,240 492,243" />
</g>
<g>
	<rect fill="#808080" stroke="none" stroke-opacity="1" x="653" y="276" width="4" height="58" />
	<rect fill="#808080" stroke="none" stroke-opacity="1" x="569" y="330" width="88" height="4" />
	<rect fill="#ffffc0" stroke="black" stroke-width="1" stroke-opacity="1" x="564" y="271" width="89" height="59" />
	<text font-family="Helvetica" font-size="13" fill="#000000" xml:space="preserve" text-anchor="middle" x="609" y="286">&lt;&lt;typedef&gt;&gt;</text>
	<text font-family="Helvetica" font-size="13" fill="#000000" xml:space="preserve" font-weight="bold" text-anchor="middle" x="609" y="306">IoEventCb</text>
	<line stroke="black" stroke-opacity="1" x1="564" y1="311" x2="653" y2="311" />
	<line stroke="black" stroke-opacity="1" x1="564" y1="320" x2="653" y2="320" />
</g>
<g>
	<rect fill="#808080" stroke="none" stroke-opacity="1" x="142" y="432" width="4" height="38" />
	<rect fill="#808080" stroke="none" stroke-opacity="1" x="74" y="466" width="72" height="4" />
	<rect fill="#ffffc0" stroke="black" stroke-width="1" stroke-opacity="1" x="69" y="427" width="73" height="39" />
	<text font-family="Helvetica" font-size="13" fill="#000000" xml:space="preserve" font-weight="bold" text-anchor="middle" x="106" y="442">TimerList</text>
	<line stroke="black" stroke-opacity="1" x1="69" y1="447" x2="142" y2="447" />
	<line stroke="black" stroke-opacity="1" x1="69" y1="456" x2="142" y2="456" />
</g>
<g>
	<text font-family="Helvetica" font-size="13" fill="#000000" xml:space="preserve" x="203" y="179">_win_dispatcher</text>
</g>
<g>
	<text font-family="Helvetica" font-size="13" fill="#000000" xml:space="preserve" x="118" y="417">_timer_list</text>
</g>
<g>
	<text font-family="Helvetica" font-size="13" fill="#000000" xml:space="preserve" x="242" y="386">_selector_list</text>
</g>
<g>
	<rect fill="#808080" stroke="none" stroke-opacity="1" x="485" y="42" width="4" height="294" />
	<rect fill="#808080" stroke="none" stroke-opacity="1" x="321" y="332" width="168" height="4" />
	<rect fill="#ffffc0" stroke="black" stroke-width="1" stroke-opacity="1" x="316" y="37" width="169" height="295" />
	<text font-family="Helvetica" font-size="13" fill="#000000" xml:space="preserve" font-weight="bold" text-anchor="middle" x="401" y="52">WinDispatcher</text>
	<line stroke="black" stroke-opacity="1" x1="316" y1="57" x2="485" y2="57" />
	<text font-family="Helvetica" font-size="13" fill="#000000" xml:space="preserve" text-decoration="underline" x="321" y="72">POLLED_INTERVAL_MS</text>
	<text font-family="Helvetica" font-size="13" fill="#000000" xml:space="preserve" x="321" y="90">_handles</text>
	<text font-family="Helvetica" font-size="13" fill="#000000" xml:space="preserve" x="321" y="108">_polled_pipes</text>
	<text font-family="Helvetica" font-size="13" fill="#000000" xml:space="preserve" x="321" y="126">_descriptor_count</text>
	<line stroke="black" stroke-opacity="1" x1="316" y1="131" x2="485" y2="131" />
	<text font-family="Helvetica" font-size="13" fill="#000000" xml:space="preserve" x="321" y="146">WinDispatcher()</text>
	<text font-family="Helvetica" font-size="13" fill="#000000" xml:space="preserve" x="321" y="164">~WinDispatcher()</text>
	<text font-family="Helvetica" font-size="13" fill="#000000" xml:space="preserve" x="321" y="182">add_ioevent_cb()</text>
	<text font-family="Helvetica" font-size="13" fill="#000000" xml:space="preserve" x="321" y="200">remove_ioevent_cb()</text>
	<text font-family="Helvetica" font-size="13" fill="#000000" xml:space="preserve" x="321" y="218">ready()</text>
	<text font-family="Helvetica" font-size="13" fill="#000000" xml:space="preserve" x="321" y="236">get_ready_priority()</text>
	<text font-family="Helvetica" font-size="13" fill="#000000" xml:space="preserve" x="321" y="254">wait_and_dispatch()</text>
	<text font-family="Helvetica" font-size="13" fill="#000000" xml:space="preserve" x="321" y="272">wait_and_dispatch()</text>
	<text font-family="Helvetica" font-size="13" fill="#000000" xml:space="preserve" x="321" y="290">descriptor_count()</text>
	<text font-family="Helvetica" font-size="13" fill="#000000" xml:space="preserve" x="321" y="308">dispatch_sockevent()</text>
	<text font-family="Helvetica" font-size="13" fill="#000000" xml:space="preserve" x="321" y="326">dispatch_pipe_reads()</text>
</g>
<g>
	<rect fill="#808080" stroke="none" stroke-opacity="1" x="480" y="347" width="4" height="210" />
	<rect fill="#808080" stroke="none" stroke-opacity="1" x="342" y="553" width="142" height="4" />
	<rect fill="#ffffc0" stroke="black" stroke-width="1" stroke-opacity="1" x="337" y="342" width="143" height="211" />
	<text font-family="Helvetica" font-size="13" fill="#000000" xml:space="preserve" font-weight="bold" text-anchor="middle" x="409" y="357">SelectorList</text>
	<line stroke="black" stroke-opacity="1" x1="337" y1="362" x2="480" y2="362" />
	<line stroke="black" stroke-opacity="1" x1="337" y1="371" x2="480" y2="371" />
	<text font-family="Helvetica" font-size="13" fill="#000000" xml:space="preserve" x="342" y="386">SelectorList()</text>
	<text font-family="Helvetica" font-size="13" fill="#000000" xml:space="preserve" x="342" y="404">~SelectorList()</text>
	<text font-family="Helvetica" font-size="13" fill="#000000" xml:space="preserve" x="342" y="422">add_ioevent_cb()</text>
	<text font-family="Helvetica" font-size="13" fill="#000000" xml:space="preserve" x="342" y="440">remove_ioevent_cb()</text>
	<text font-family="Helvetica" font-size="13" fill="#000000" xml:space="preserve" x="342" y="458">ready()</text>
	<text font-family="Helvetica" font-size="13" fill="#000000" xml:space="preserve" x="342" y="476">get_ready_priority()</text>
	<text font-family="Helvetica" font-size="13" fill="#000000" xml:space="preserve" x="342" y="494">wait_and_dispatch()</text>
	<text font-family="Helvetica" font-size="13" fill="#000000" xml:space="preserve" x="342" y="512">descriptor_count()</text>
	<text font-family="Helvetica" font-size="13" fill="#000000" xml:space="preserve" x="342" y="530">get_fd_set()</text>
	<text font-family="Helvetica" font-size="13" fill="#000000" xml:space="preserve" x="342" y="548">remove_observer()</text>
</g>
</svg>
